<svg width="169" height="55" viewBox="0 0 169 55" fill="none" xmlns="http://www.w3.org/2000/svg">
<path d="M90.4143 20.378C91.4468 21.4642 91.9629 22.9965 91.9629 24.9753V35.783H86.9301V25.8463C86.9301 23.9753 86.102 23.0396 84.4461 23.0396C83.5643 23.0396 82.8653 23.3408 82.349 23.9428C81.8328 24.5452 81.5746 25.427 81.5746 26.5884V35.783H76.5421V25.8463C76.5421 23.9753 75.714 23.0396 74.0578 23.0396C73.1761 23.0396 72.4716 23.3408 71.9448 23.9428C71.4177 24.5452 71.1544 25.427 71.1544 26.5884V35.783H66.1216V19.1361H71.0253V21.4911C72.2512 19.663 73.832 18.7489 75.7677 18.7489C78.2625 18.7489 79.983 19.7489 80.9296 21.7492C82.2845 19.7489 84.0158 18.7489 86.1237 18.7489C87.9518 18.7489 89.382 19.292 90.4143 20.378Z" fill="black"/>
<path d="M105.466 35.783C105.208 35.2884 105.068 34.6648 105.047 33.9118C103.928 35.4175 102.154 36.1702 99.7235 36.1702C97.8954 36.1702 96.4277 35.7187 95.32 34.8153C94.2124 33.9118 93.6584 32.6643 93.6584 31.0729C93.6584 27.9758 95.8309 26.2445 100.175 25.8788L102.788 25.6529C104.229 25.5024 104.95 24.9541 104.95 24.0076C104.95 22.8893 104.1 22.33 102.401 22.33C101.369 22.33 100.643 22.4861 100.224 22.7979C99.8043 23.1098 99.5516 23.6851 99.4654 24.5238H94.4651C94.7661 20.674 97.4223 18.7491 102.434 18.7491C107.38 18.7491 109.854 20.459 109.854 23.8785V32.7182C109.854 34.116 110.079 35.1379 110.531 35.783H105.466ZM103.95 31.8955C104.617 31.3039 104.95 30.417 104.95 29.2339V28.0081C104.649 28.3307 104.09 28.5458 103.272 28.6532L101.208 28.8792C99.5945 29.0512 98.788 29.7179 98.788 30.8793C98.788 31.4601 99.0031 31.9224 99.4331 32.2665C99.8634 32.6106 100.466 32.7827 101.24 32.7827C102.38 32.7827 103.283 32.4871 103.95 31.8955Z" fill="black"/>
<path d="M123.822 35.783L119.531 28.9113L117.273 31.234V35.783H112.337V12.8129H117.273V25.7174L123.435 19.1361H129.209L122.951 25.5884L129.564 35.783H123.822Z" fill="black"/>
<path d="M145.981 28.9436H133.657C133.829 30.0835 134.248 30.9546 134.915 31.5566C135.582 32.1589 136.431 32.4601 137.464 32.4601C139.098 32.4601 140.217 31.8362 140.819 30.5889H145.594C145.142 32.3094 144.185 33.6697 142.722 34.6699C141.26 35.6702 139.507 36.17 137.464 36.17C134.883 36.17 132.797 35.3742 131.205 33.7828C129.614 32.1911 128.818 30.0835 128.818 27.4596C128.818 24.814 129.603 22.7063 131.173 21.1364C132.721 19.5447 134.797 18.7489 137.399 18.7489C139.98 18.7489 142.066 19.577 143.658 21.2329C145.207 22.9108 145.981 25.1475 145.981 27.9435V28.9436ZM133.689 25.7497H141.045C140.873 24.7172 140.464 23.9108 139.819 23.3302C139.174 22.7494 138.346 22.459 137.335 22.459C135.27 22.459 134.055 23.5558 133.689 25.7497Z" fill="black"/>
<path d="M164.266 28.9436H151.942C152.114 30.0835 152.533 30.9546 153.2 31.5566C153.867 32.1589 154.716 32.4601 155.749 32.4601C157.383 32.4601 158.502 31.8362 159.104 30.5889H163.879C163.427 32.3094 162.47 33.6697 161.008 34.6699C159.545 35.6702 157.792 36.17 155.749 36.17C153.168 36.17 151.082 35.3742 149.49 33.7828C147.899 32.1911 147.103 30.0835 147.103 27.4596C147.103 24.814 147.888 22.7063 149.458 21.1364C151.006 19.5447 153.082 18.7489 155.684 18.7489C158.266 18.7489 160.351 19.577 161.943 21.2329C163.492 22.9108 164.266 25.1475 164.266 27.9435V28.9436ZM151.974 25.7497H159.33C159.158 24.7172 158.749 23.9108 158.104 23.3302C157.459 22.7494 156.631 22.459 155.62 22.459C153.555 22.459 152.34 23.5558 151.974 25.7497Z" fill="black"/>
<path d="M165.958 15.7243V16.1451H165.347V17.7087H164.873V16.1451H164.266V15.7243H165.958Z" fill="black"/>
<path d="M167.63 15.7243H168.335V17.7087H167.886V17.1264C167.886 16.7566 167.892 16.4368 167.903 16.1674C167.868 16.303 167.823 16.4535 167.77 16.6189L167.427 17.7087H167.042L166.699 16.6189C166.658 16.4871 166.615 16.3376 166.568 16.1704C166.578 16.4824 166.582 16.801 166.582 17.1264V17.7087H166.133V15.7243H166.839L167.101 16.5772C167.136 16.6979 167.181 16.8624 167.237 17.0706C167.282 16.894 167.326 16.7268 167.371 16.5688L167.63 15.7243Z" fill="black"/>
<path d="M0 27.0439C0 6.76093 6.76093 -0.000226021 27.0442 -0.000226021C47.3272 -0.000226021 54.0881 6.76093 54.0881 27.0439C54.0881 47.3269 47.3272 54.0881 27.0442 54.0881C6.76093 54.0881 0 47.3269 0 27.0439Z" fill="#FADB5F"/>
<path d="M34.3436 19.7663H19.7444V27.044H23.4051V34.3216H30.6829V27.044H34.3436V34.3216H41.6213V27.044V19.7663H34.3436Z" fill="black"/>
<rect x="12.4668" y="27.0439" width="7.27763" height="7.27763" fill="black"/>
</svg>
